<svg width="144.35498046875px" height="55.997509765625px" xmlns="http://www.w3.org/2000/svg" viewBox="177.822509765625 47.0012451171875 144.35498046875 55.997509765625" style="background: rgba(0, 0, 0, 0);" preserveAspectRatio="xMidYMid"><defs><filter id="editing-hole" x="-100%" y="-100%" width="300%" height="300%"><feFlood flood-color="#000000" result="black"></feFlood><feMorphology operator="dilate" radius="2" in="SourceGraphic" result="erode"></feMorphology><feGaussianBlur in="erode" stdDeviation="4" result="blur"></feGaussianBlur><feOffset in="blur" dx="2" dy="2" result="offset"></feOffset><feComposite operator="atop" in="offset" in2="black" result="merge"></feComposite><feComposite operator="in" in="merge" in2="SourceGraphic" result="inner-shadow"></feComposite></filter></defs><g filter="url(#editing-hole)"><g transform="translate(204.74937802553177, 82.65312480926514)"><path d="M0.66-13.20L0.66-15.40L12.98-15.40L12.98-13.20L7.92-13.20L7.92 0L5.71 0L5.71-13.20L0.66-13.20ZM15.40-5.15L15.40-7.26L20.55-7.26L20.55-5.15L15.40-5.15ZM33.97-6.60L26.49-6.60L26.49-6.60Q26.04-6.60 25.64-6.77L25.64-6.77L25.64-6.77Q25.23-6.95 24.93-7.25L24.93-7.25L24.93-7.25Q24.63-7.54 24.46-7.94L24.46-7.94L24.46-7.94Q24.29-8.35 24.29-8.80L24.29-8.80L24.29-13.20L24.29-13.20Q24.29-13.65 24.46-14.06L24.46-14.06L24.46-14.06Q24.63-14.46 24.93-14.75L24.93-14.75L24.93-14.75Q25.23-15.05 25.64-15.23L25.64-15.23L25.64-15.23Q26.04-15.40 26.49-15.40L26.49-15.40L33.97-15.40L33.97-15.40Q34.42-15.40 34.82-15.23L34.82-15.23L34.82-15.23Q35.22-15.05 35.52-14.75L35.52-14.75L35.52-14.75Q35.83-14.46 36.00-14.06L36.00-14.06L36.00-14.06Q36.17-13.65 36.17-13.20L36.17-13.20L36.17-11.21L33.97-11.21L33.97-13.20L26.49-13.20L26.49-8.80L33.97-8.80L33.97-8.80Q34.42-8.80 34.82-8.63L34.82-8.63L34.82-8.63Q35.22-8.45 35.52-8.15L35.52-8.15L35.52-8.15Q35.83-7.85 36.00-7.45L36.00-7.45L36.00-7.45Q36.17-7.05 36.17-6.60L36.17-6.60L36.17-2.20L36.17-2.20Q36.17-1.75 36.00-1.35L36.00-1.35L36.00-1.35Q35.83-0.95 35.52-0.64L35.52-0.64L35.52-0.64Q35.22-0.34 34.82-0.17L34.82-0.17L34.82-0.17Q34.42 0 33.97 0L33.97 0L26.28 0L26.28 0Q25.82 0 25.42-0.17L25.42-0.17L25.42-0.17Q25.02-0.34 24.72-0.64L24.72-0.64L24.72-0.64Q24.42-0.95 24.25-1.35L24.25-1.35L24.25-1.35Q24.07-1.75 24.07-2.20L24.07-2.20L24.07-4.18L26.28-4.18L26.28-2.20L33.97-2.20L33.97-6.60ZM51.15-15.40L53.36-15.40L53.36 0L51.15 0L51.15-6.60L42.33-6.60L42.33 0L40.13 0L40.13-15.40L42.33-15.40L42.33-8.80L51.15-8.80L51.15-15.40ZM57.31-15.40L59.51-15.40L59.51 0L57.31 0L57.31-15.40ZM75.64-11.66L75.64-9.90L75.64-9.90Q75.64-6.68 72.89-6.23L72.89-6.23L75.79 0L73.35 0L70.49-6.16L65.67-6.16L65.67 0L63.46 0L63.46-15.40L71.90-15.40L71.90-15.40Q75.64-15.40 75.64-11.66L75.64-11.66ZM65.67-13.20L65.67-8.36L71.78-8.36L71.78-8.36Q72.66-8.36 73.05-8.74L73.05-8.74L73.05-8.74Q73.43-9.13 73.43-10.01L73.43-10.01L73.43-11.55L73.43-11.55Q73.43-12.43 73.05-12.82L73.05-12.82L73.05-12.82Q72.66-13.20 71.78-13.20L71.78-13.20L65.67-13.20ZM77.99-13.20L77.99-15.40L90.31-15.40L90.31-13.20L85.25-13.20L85.25 0L83.05 0L83.05-13.20L77.99-13.20Z" fill="#000000"></path></g></g><style>text {
  font-size: 64px;
  font-family: Arial Black;
  dominant-baseline: central;
  text-anchor: middle;
}</style></svg>